<?xml version="1.0" ?><svg data-name="Layer 1" id="Layer_1" viewBox="0 0 64 64" xmlns="http://www.w3.org/2000/svg"><title/><circle cx="32" cy="32" r="32"/><polyline points="33.54 10.56 36.86 10.29 49.36 22.79 42.19 24.97 28.74 11.95 25.33 12.48 20.09 20.43 20.35 24.36 31.68 36.33 35.09 37.03 40.42 28.91" style="fill:none;stroke:#bbbdbf;stroke-linecap:round;stroke-linejoin:round;stroke-width:3px"/><polyline points="49.36 22.79 50.67 26.81 44.55 36.59 39.31 37.82" style="fill:none;stroke:#bbbdbf;stroke-linecap:round;stroke-linejoin:round;stroke-width:3px"/><path d="M24,34.58,13.37,49.26s-.46,2.94,1.83,4.11c2.05,1.05,4.29-.7,4.29-.7l8.36-14.24" style="fill:none;stroke:#ffb700;stroke-linecap:round;stroke-linejoin:round;stroke-width:3px"/><line style="fill:none;stroke:#ffb700;stroke-linecap:round;stroke-linejoin:round;stroke-width:3px" x1="22.38" x2="26" y1="37.23" y2="39.88"/><line style="fill:none;stroke:#ffb700;stroke-linecap:round;stroke-linejoin:round;stroke-width:3px" x1="19.32" x2="22.94" y1="42.21" y2="44.86"/><line style="fill:none;stroke:#ffb700;stroke-linecap:round;stroke-linejoin:round;stroke-width:3px" x1="16.27" x2="19.88" y1="47.19" y2="49.84"/><polyline points="33.54 10.56 36.86 10.29 49.36 22.79 42.19 24.97 28.74 11.95 25.33 12.48 20.09 20.43 20.35 24.36 31.68 36.33 35.09 37.03 40.42 28.91" style="fill:none;stroke:#e6e7e8;stroke-linecap:round;stroke-linejoin:round;stroke-width:1.5px"/><polyline points="49.36 22.79 50.67 26.81 44.55 36.59 39.31 37.82" style="fill:none;stroke:#e6e7e8;stroke-linecap:round;stroke-linejoin:round;stroke-width:1.5px"/><polyline points="33.54 10.56 36.86 10.29 49.36 22.79 42.19 24.97 28.74 11.95 25.33 12.48 20.09 20.43 20.35 24.36 31.68 36.33 35.09 37.03 40.42 28.91" style="fill:none;stroke:#e2faff;stroke-linecap:round;stroke-linejoin:round;stroke-width:0.5px"/><polyline points="49.36 22.79 50.67 26.81 44.55 36.59 39.31 37.82" style="fill:none;stroke:#e2faff;stroke-linecap:round;stroke-linejoin:round;stroke-width:0.5px"/><path d="M24,34.58,13.37,49.26s-.46,2.94,1.83,4.11c2.05,1.05,4.29-.7,4.29-.7l8.36-14.24" style="fill:none;stroke:#ff0;stroke-linecap:round;stroke-linejoin:round;stroke-width:1.5px"/><line style="fill:none;stroke:#ff0;stroke-linecap:round;stroke-linejoin:round;stroke-width:1.5px" x1="22.38" x2="26" y1="37.23" y2="39.88"/><line style="fill:none;stroke:#ff0;stroke-linecap:round;stroke-linejoin:round;stroke-width:1.5px" x1="19.32" x2="22.94" y1="42.21" y2="44.86"/><line style="fill:none;stroke:#ff0;stroke-linecap:round;stroke-linejoin:round;stroke-width:1.5px" x1="16.27" x2="19.88" y1="47.19" y2="49.84"/><path d="M24,34.58,13.37,49.26s-.46,2.94,1.83,4.11c2.05,1.05,4.29-.7,4.29-.7l8.36-14.24" style="fill:none;stroke:#e2faff;stroke-linecap:round;stroke-linejoin:round;stroke-width:0.5px"/><line style="fill:none;stroke:#e2faff;stroke-linecap:round;stroke-linejoin:round;stroke-width:0.5px" x1="22.38" x2="26" y1="37.23" y2="39.88"/><line style="fill:none;stroke:#e2faff;stroke-linecap:round;stroke-linejoin:round;stroke-width:0.5px" x1="19.32" x2="22.94" y1="42.21" y2="44.86"/><line style="fill:none;stroke:#e2faff;stroke-linecap:round;stroke-linejoin:round;stroke-width:0.5px" x1="16.27" x2="19.88" y1="47.19" y2="49.84"/></svg>